<svg version="1.1" id="Layer_1" xmlns="http://www.w3.org/2000/svg" xmlns:xlink="http://www.w3.org/1999/xlink" x="0px" y="0px"
	 width="100%" viewBox="150 115 225 240" enable-background="new 150 115 225 240" xml:space="preserve">

<path fill="black" opacity="1.000000" stroke="none" 
	d="
M220.145584,291.883606 
	C242.713318,310.239166 266.970123,311.227539 292.823639,299.941833 
	C292.823639,316.903229 292.823639,333.484283 292.823639,350.259766 
	C262.738342,358.518921 233.740906,355.702911 206.828690,340.241394 
	C179.824249,324.726868 161.219116,301.817352 153.613052,271.135834 
	C141.575089,222.576859 159.749146,176.712662 200.832794,149.165802 
	C222.507339,134.632889 246.686325,129.379089 272.787018,131.814209 
	C305.715515,134.886337 331.451172,150.461090 351.457550,176.023849 
	C361.685242,189.092087 368.821869,203.915970 371.042816,220.550537 
	C372.509491,231.535355 373.643585,242.645905 373.767792,253.713165 
	C374.125031,285.542267 373.893524,317.377991 373.893311,349.211121 
	C373.893311,350.857452 373.893341,352.503754 373.893341,354.515289 
	C358.201721,354.515289 342.791931,354.515289 326.847778,354.515289 
	C326.699890,352.106903 326.404877,349.518951 326.402588,346.930725 
	C326.372528,312.930969 326.337799,278.931122 326.399902,244.931458 
	C326.445221,220.121353 315.739380,201.155731 295.176056,187.730576 
	C268.574188,170.363068 230.646286,177.876297 210.788773,203.468323 
	C190.569687,229.526337 192.675873,268.476410 220.145584,291.883606 
z"/>
<path fill="black" opacity="1.000000" stroke="none" 
	d="
M283.956848,265.954956 
	C267.171692,283.516418 237.633957,275.250183 231.337296,250.997269 
	C226.766785,233.393036 239.630508,213.823883 255.271652,210.885300 
	C270.449646,208.033752 288.567963,215.732559 292.806152,237.250763 
	C294.870056,247.729797 291.850708,257.658936 283.956848,265.954956 
z"/>
</svg>