<svg version="1.1" id="Layer_1" xmlns="http://www.w3.org/2000/svg" xmlns:xlink="http://www.w3.org/1999/xlink" x="0px" y="0px"
	 width="100%" viewBox="0 0 522 501" enable-background="new 0 0 522 501" xml:space="preserve">
<path fill="none" opacity="1.000000" stroke="none" 
	d="
M523.000000,196.000000 
	C523.000000,298.308441 523.000000,400.116913 523.000000,501.962677 
	C349.067413,501.962677 175.134781,501.962677 1.101087,501.962677 
	C1.101087,335.108246 1.101087,168.216415 1.101087,1.162289 
	C174.999878,1.162289 348.999939,1.162289 523.000000,1.162289 
	C523.000000,65.865173 523.000000,130.682587 523.000000,196.000000 
M201.122757,445.445465 
	C215.639160,449.577271 230.370743,452.211823 245.469635,453.381409 
	C267.527863,455.089996 289.376495,453.864136 310.755219,448.619904 
	C358.811035,436.831665 398.451935,411.505615 428.883820,372.337891 
	C456.042877,337.382416 470.719788,297.574463 472.878876,253.411804 
	C474.169281,227.017990 470.794708,201.134583 462.226746,175.928757 
	C448.402405,135.259460 424.623596,101.713181 390.696869,75.594658 
	C357.869202,50.322258 320.730713,35.797653 279.187561,32.681549 
	C255.122879,30.876486 231.422104,32.481216 208.136963,38.710270 
	C162.362701,50.955421 124.758049,75.844879 95.481834,113.043999 
	C70.800682,144.404526 56.322742,180.177887 52.015411,219.795776 
	C49.674381,241.328049 50.517059,262.887970 54.876148,284.258118 
	C65.470589,336.196686 92.009224,378.178223 133.603394,410.730682 
	C153.644623,426.415314 176.082581,437.638489 201.122757,445.445465 
z"/>
<path fill="none" opacity="1.000000" stroke="none" 
	d="
M73.852905,317.115356 
	C47.784496,245.056000 56.675995,177.871979 103.599434,117.855148 
	C144.262680,65.845314 199.273224,40.427460 265.628113,41.064823 
	C311.275116,41.503284 352.178986,56.305969 387.654602,84.780563 
	C427.522034,116.780251 452.680878,158.057236 461.041504,208.820084 
	C470.709564,267.521210 457.546753,320.889160 420.865295,367.710846 
	C389.053497,408.316803 347.356934,433.523468 296.239929,442.043854 
	C237.099670,451.901520 183.579208,438.150635 136.385788,401.362610 
	C108.025917,379.255615 87.243881,351.051056 73.852905,317.115356 
M219.892151,291.634277 
	C192.675873,268.476410 190.569687,229.526337 210.788773,203.468323 
	C230.646286,177.876297 268.574188,170.363068 295.176056,187.730576 
	C315.739380,201.155731 326.445221,220.121353 326.399902,244.931458 
	C326.337799,278.931122 326.372528,312.930969 326.402588,346.930725 
	C326.404877,349.518951 326.699890,352.106903 326.847778,354.515289 
	C342.791931,354.515289 358.201721,354.515289 373.893341,354.515289 
	C373.893341,352.503754 373.893311,350.857452 373.893311,349.211121 
	C373.893524,317.377991 374.125031,285.542267 373.767792,253.713165 
	C373.643585,242.645905 372.509491,231.535355 371.042816,220.550537 
	C368.821869,203.915970 361.685242,189.092087 351.457550,176.023849 
	C331.451172,150.461090 305.715515,134.886337 272.787018,131.814209 
	C246.686325,129.379089 222.507339,134.632889 200.832794,149.165802 
	C159.749146,176.712662 141.575089,222.576859 153.613052,271.135834 
	C161.219116,301.817352 179.824249,324.726868 206.828690,340.241394 
	C233.740906,355.702911 262.738342,358.518921 292.823639,350.259766 
	C292.823639,333.484283 292.823639,316.903229 292.823639,299.941833 
	C266.970123,311.227539 242.713318,310.239166 219.892151,291.634277 
M284.209290,265.701508 
	C291.850708,257.658936 294.870056,247.729797 292.806152,237.250763 
	C288.567963,215.732559 270.449646,208.033752 255.271652,210.885300 
	C239.630508,213.823883 226.766785,233.393036 231.337296,250.997269 
	C237.633957,275.250183 267.171692,283.516418 284.209290,265.701508 
z"/>
<path fill="#ffffff" opacity="1.000000" stroke="none" 
	d="
M220.145584,291.883606 
	C242.713318,310.239166 266.970123,311.227539 292.823639,299.941833 
	C292.823639,316.903229 292.823639,333.484283 292.823639,350.259766 
	C262.738342,358.518921 233.740906,355.702911 206.828690,340.241394 
	C179.824249,324.726868 161.219116,301.817352 153.613052,271.135834 
	C141.575089,222.576859 159.749146,176.712662 200.832794,149.165802 
	C222.507339,134.632889 246.686325,129.379089 272.787018,131.814209 
	C305.715515,134.886337 331.451172,150.461090 351.457550,176.023849 
	C361.685242,189.092087 368.821869,203.915970 371.042816,220.550537 
	C372.509491,231.535355 373.643585,242.645905 373.767792,253.713165 
	C374.125031,285.542267 373.893524,317.377991 373.893311,349.211121 
	C373.893311,350.857452 373.893341,352.503754 373.893341,354.515289 
	C358.201721,354.515289 342.791931,354.515289 326.847778,354.515289 
	C326.699890,352.106903 326.404877,349.518951 326.402588,346.930725 
	C326.372528,312.930969 326.337799,278.931122 326.399902,244.931458 
	C326.445221,220.121353 315.739380,201.155731 295.176056,187.730576 
	C268.574188,170.363068 230.646286,177.876297 210.788773,203.468323 
	C190.569687,229.526337 192.675873,268.476410 220.145584,291.883606 
z"/>
<path fill="#ffffff" opacity="1.000000" stroke="none" 
	d="
M283.956848,265.954956 
	C267.171692,283.516418 237.633957,275.250183 231.337296,250.997269 
	C226.766785,233.393036 239.630508,213.823883 255.271652,210.885300 
	C270.449646,208.033752 288.567963,215.732559 292.806152,237.250763 
	C294.870056,247.729797 291.850708,257.658936 283.956848,265.954956 
z"/>
</svg>